<?xml version="1.0" encoding="UTF-8"?>
<svg version="1.1" xmlns="http://www.w3.org/2000/svg" width="165" height="180">
<path d="M0 0 C4.95 0 9.9 0 15 0 C15 4.95 15 9.9 15 15 C19.95 15 24.9 15 30 15 C30 24.9 30 34.8 30 45 C34.95 45 39.9 45 45 45 C45 49.95 45 54.9 45 60 C59.85 60 74.7 60 90 60 C90 69.9 90 79.8 90 90 C85.05 90 80.1 90 75 90 C75 94.95 75 99.9 75 105 C70.05 105 65.1 105 60 105 C60 109.95 60 114.9 60 120 C64.95 120 69.9 120 75 120 C75 129.9 75 139.8 75 150 C79.95 150 84.9 150 90 150 C90 159.9 90 169.8 90 180 C75.15 180 60.3 180 45 180 C45 175.05 45 170.1 45 165 C35.1 165 25.2 165 15 165 C15 160.05 15 155.1 15 150 C10.05 150 5.1 150 0 150 C0 154.95 0 159.9 0 165 C-9.9 165 -19.8 165 -30 165 C-30 169.95 -30 174.9 -30 180 C-44.85 180 -59.7 180 -75 180 C-75 170.1 -75 160.2 -75 150 C-70.05 150 -65.1 150 -60 150 C-60 140.1 -60 130.2 -60 120 C-55.05 120 -50.1 120 -45 120 C-45 115.05 -45 110.1 -45 105 C-49.95 105 -54.9 105 -60 105 C-60 100.05 -60 95.1 -60 90 C-64.95 90 -69.9 90 -75 90 C-75 80.1 -75 70.2 -75 60 C-60.15 60 -45.3 60 -30 60 C-30 55.05 -30 50.1 -30 45 C-25.05 45 -20.1 45 -15 45 C-15 35.1 -15 25.2 -15 15 C-10.05 15 -5.1 15 0 15 C0 10.05 0 5.1 0 0 Z " fill="#F0D421" transform="translate(75,0)"/>
<path d="M0 0 C9.9 0 19.8 0 30 0 C30 4.95 30 9.9 30 15 C34.95 15 39.9 15 45 15 C45 19.95 45 24.9 45 30 C40.05 30 35.1 30 30 30 C30 34.95 30 39.9 30 45 C25.05 45 20.1 45 15 45 C15 49.95 15 54.9 15 60 C24.9 60 34.8 60 45 60 C45 55.05 45 50.1 45 45 C59.85 45 74.7 45 90 45 C90 49.95 90 54.9 90 60 C99.9 60 109.8 60 120 60 C120 55.05 120 50.1 120 45 C115.05 45 110.1 45 105 45 C105 40.05 105 35.1 105 30 C100.05 30 95.1 30 90 30 C90 25.05 90 20.1 90 15 C94.95 15 99.9 15 105 15 C105 10.05 105 5.1 105 0 C114.9 0 124.8 0 135 0 C135 4.95 135 9.9 135 15 C130.05 15 125.1 15 120 15 C120 19.95 120 24.9 120 30 C124.95 30 129.9 30 135 30 C135 39.9 135 49.8 135 60 C139.95 60 144.9 60 150 60 C150 69.9 150 79.8 150 90 C135.15 90 120.3 90 105 90 C105 85.05 105 80.1 105 75 C95.1 75 85.2 75 75 75 C75 70.05 75 65.1 75 60 C70.05 60 65.1 60 60 60 C60 64.95 60 69.9 60 75 C50.1 75 40.2 75 30 75 C30 79.95 30 84.9 30 90 C15.15 90 0.3 90 -15 90 C-15 80.1 -15 70.2 -15 60 C-10.05 60 -5.1 60 0 60 C0 50.1 0 40.2 0 30 C4.95 30 9.9 30 15 30 C15 25.05 15 20.1 15 15 C10.05 15 5.1 15 0 15 C0 10.05 0 5.1 0 0 Z " fill="#594306" transform="translate(15,90)"/>
<path d="M0 0 C4.95 0 9.9 0 15 0 C15 4.95 15 9.9 15 15 C19.95 15 24.9 15 30 15 C30 24.9 30 34.8 30 45 C34.95 45 39.9 45 45 45 C45 49.95 45 54.9 45 60 C59.85 60 74.7 60 90 60 C90 69.9 90 79.8 90 90 C85.05 90 80.1 90 75 90 C75 85.05 75 80.1 75 75 C50.25 75 25.5 75 0 75 C0 70.05 0 65.1 0 60 C-4.95 60 -9.9 60 -15 60 C-15 64.95 -15 69.9 -15 75 C-29.85 75 -44.7 75 -60 75 C-60 79.95 -60 84.9 -60 90 C-64.95 90 -69.9 90 -75 90 C-75 80.1 -75 70.2 -75 60 C-60.15 60 -45.3 60 -30 60 C-30 55.05 -30 50.1 -30 45 C-25.05 45 -20.1 45 -15 45 C-15 35.1 -15 25.2 -15 15 C-10.05 15 -5.1 15 0 15 C0 10.05 0 5.1 0 0 Z " fill="#E1C51F" transform="translate(75,0)"/>
<path d="M0 0 C4.95 0 9.9 0 15 0 C15 4.95 15 9.9 15 15 C29.85 15 44.7 15 60 15 C60 19.95 60 24.9 60 30 C64.95 30 69.9 30 75 30 C75 34.95 75 39.9 75 45 C65.1 45 55.2 45 45 45 C45 40.05 45 35.1 45 30 C30.15 30 15.3 30 0 30 C0 34.95 0 39.9 0 45 C-9.9 45 -19.8 45 -30 45 C-30 40.05 -30 35.1 -30 30 C-25.05 30 -20.1 30 -15 30 C-15 25.05 -15 20.1 -15 15 C-10.05 15 -5.1 15 0 15 C0 10.05 0 5.1 0 0 Z " fill="#E1C51F" transform="translate(60,105)"/>
<path d="M0 0 C9.9 0 19.8 0 30 0 C30 4.95 30 9.9 30 15 C25.05 15 20.1 15 15 15 C15 19.95 15 24.9 15 30 C19.95 30 24.9 30 30 30 C30 39.9 30 49.8 30 60 C34.95 60 39.9 60 45 60 C45 64.95 45 69.9 45 75 C35.1 75 25.2 75 15 75 C15 65.1 15 55.2 15 45 C10.05 45 5.1 45 0 45 C0 40.05 0 35.1 0 30 C-4.95 30 -9.9 30 -15 30 C-15 25.05 -15 20.1 -15 15 C-10.05 15 -5.1 15 0 15 C0 10.05 0 5.1 0 0 Z " fill="#4B3805" transform="translate(120,90)"/>
<path d="M0 0 C4.95 0 9.9 0 15 0 C15 4.95 15 9.9 15 15 C29.85 15 44.7 15 60 15 C60 24.9 60 34.8 60 45 C55.05 45 50.1 45 45 45 C45 40.05 45 35.1 45 30 C30.15 30 15.3 30 0 30 C0 20.1 0 10.2 0 0 Z " fill="#84670B" transform="translate(105,45)"/>
<path d="M0 0 C4.95 0 9.9 0 15 0 C15 4.95 15 9.9 15 15 C19.95 15 24.9 15 30 15 C30 24.9 30 34.8 30 45 C25.05 45 20.1 45 15 45 C15 40.05 15 35.1 15 30 C10.05 30 5.1 30 0 30 C0 34.95 0 39.9 0 45 C-4.95 45 -9.9 45 -15 45 C-15 35.1 -15 25.2 -15 15 C-10.05 15 -5.1 15 0 15 C0 10.05 0 5.1 0 0 Z " fill="#84670B" transform="translate(75,0)"/>
<path d="M0 0 C4.95 0 9.9 0 15 0 C15 4.95 15 9.9 15 15 C24.9 15 34.8 15 45 15 C45 19.95 45 24.9 45 30 C30.15 30 15.3 30 0 30 C0 20.1 0 10.2 0 0 Z " fill="#4B3805" transform="translate(0,150)"/>
<path d="M0 0 C9.9 0 19.8 0 30 0 C30 4.95 30 9.9 30 15 C34.95 15 39.9 15 45 15 C45 19.95 45 24.9 45 30 C35.1 30 25.2 30 15 30 C15 25.05 15 20.1 15 15 C10.05 15 5.1 15 0 15 C0 10.05 0 5.1 0 0 Z " fill="#84670B" transform="translate(15,90)"/>
<path d="M0 0 C14.85 0 29.7 0 45 0 C45 4.95 45 9.9 45 15 C35.1 15 25.2 15 15 15 C15 19.95 15 24.9 15 30 C10.05 30 5.1 30 0 30 C0 20.1 0 10.2 0 0 Z " fill="#84670B" transform="translate(0,60)"/>
<path d="M0 0 C14.85 0 29.7 0 45 0 C45 4.95 45 9.9 45 15 C30.15 15 15.3 15 0 15 C0 10.05 0 5.1 0 0 Z " fill="#4B3805" transform="translate(120,165)"/>
<path d="M0 0 C14.85 0 29.7 0 45 0 C45 4.95 45 9.9 45 15 C30.15 15 15.3 15 0 15 C0 10.05 0 5.1 0 0 Z " fill="#E1C51F" transform="translate(105,75)"/>
<path d="M0 0 C9.9 0 19.8 0 30 0 C30 4.95 30 9.9 30 15 C25.05 15 20.1 15 15 15 C15 19.95 15 24.9 15 30 C10.05 30 5.1 30 0 30 C0 20.1 0 10.2 0 0 Z " fill="#B99F16" transform="translate(45,45)"/>
<path d="M0 0 C9.9 0 19.8 0 30 0 C30 4.95 30 9.9 30 15 C20.1 15 10.2 15 0 15 C0 10.05 0 5.1 0 0 Z " fill="#84670B" transform="translate(135,150)"/>
<path d="M0 0 C9.9 0 19.8 0 30 0 C30 4.95 30 9.9 30 15 C20.1 15 10.2 15 0 15 C0 10.05 0 5.1 0 0 Z " fill="#4B3805" transform="translate(45,150)"/>
<path d="M0 0 C9.9 0 19.8 0 30 0 C30 4.95 30 9.9 30 15 C20.1 15 10.2 15 0 15 C0 10.05 0 5.1 0 0 Z " fill="#84670B" transform="translate(15,150)"/>
<path d="M0 0 C9.9 0 19.8 0 30 0 C30 4.95 30 9.9 30 15 C20.1 15 10.2 15 0 15 C0 10.05 0 5.1 0 0 Z " fill="#B99F16" transform="translate(30,135)"/>
<path d="M0 0 C4.95 0 9.9 0 15 0 C15 9.9 15 19.8 15 30 C10.05 30 5.1 30 0 30 C0 20.1 0 10.2 0 0 Z " fill="#B99F16" transform="translate(105,45)"/>
<path d="M0 0 C4.95 0 9.9 0 15 0 C15 9.9 15 19.8 15 30 C10.05 30 5.1 30 0 30 C0 20.1 0 10.2 0 0 Z " fill="#4D3708" transform="translate(90,15)"/>
<path d="M0 0 C4.95 0 9.9 0 15 0 C15 9.9 15 19.8 15 30 C10.05 30 5.1 30 0 30 C0 20.1 0 10.2 0 0 Z " fill="#4D3708" transform="translate(60,15)"/>
<path d="M0 0 C4.95 0 9.9 0 15 0 C15 4.95 15 9.9 15 15 C10.05 15 5.1 15 0 15 C0 10.05 0 5.1 0 0 Z " fill="#B99F16" transform="translate(135,150)"/>
<path d="M0 0 C4.95 0 9.9 0 15 0 C15 4.95 15 9.9 15 15 C10.05 15 5.1 15 0 15 C0 10.05 0 5.1 0 0 Z " fill="#84670B" transform="translate(120,150)"/>
<path d="M0 0 C4.95 0 9.9 0 15 0 C15 4.95 15 9.9 15 15 C10.05 15 5.1 15 0 15 C0 10.05 0 5.1 0 0 Z " fill="#B99F16" transform="translate(15,150)"/>
<path d="M0 0 C4.95 0 9.9 0 15 0 C15 4.95 15 9.9 15 15 C10.05 15 5.1 15 0 15 C0 10.05 0 5.1 0 0 Z " fill="#84670B" transform="translate(0,150)"/>
<path d="M0 0 C4.95 0 9.9 0 15 0 C15 4.95 15 9.9 15 15 C10.05 15 5.1 15 0 15 C0 10.05 0 5.1 0 0 Z " fill="#84670B" transform="translate(135,135)"/>
<path d="M0 0 C4.95 0 9.9 0 15 0 C15 4.95 15 9.9 15 15 C10.05 15 5.1 15 0 15 C0 10.05 0 5.1 0 0 Z " fill="#F0D421" transform="translate(120,135)"/>
<path d="M0 0 C4.95 0 9.9 0 15 0 C15 4.95 15 9.9 15 15 C10.05 15 5.1 15 0 15 C0 10.05 0 5.1 0 0 Z " fill="#B99F16" transform="translate(105,135)"/>
<path d="M0 0 C4.95 0 9.9 0 15 0 C15 4.95 15 9.9 15 15 C10.05 15 5.1 15 0 15 C0 10.05 0 5.1 0 0 Z " fill="#84670B" transform="translate(90,135)"/>
<path d="M0 0 C4.95 0 9.9 0 15 0 C15 4.95 15 9.9 15 15 C10.05 15 5.1 15 0 15 C0 10.05 0 5.1 0 0 Z " fill="#84670B" transform="translate(60,135)"/>
<path d="M0 0 C4.95 0 9.9 0 15 0 C15 4.95 15 9.9 15 15 C10.05 15 5.1 15 0 15 C0 10.05 0 5.1 0 0 Z " fill="#E1C51F" transform="translate(30,135)"/>
<path d="M0 0 C4.95 0 9.9 0 15 0 C15 4.95 15 9.9 15 15 C10.05 15 5.1 15 0 15 C0 10.05 0 5.1 0 0 Z " fill="#84670B" transform="translate(15,135)"/>
<path d="M0 0 C4.95 0 9.9 0 15 0 C15 4.95 15 9.9 15 15 C10.05 15 5.1 15 0 15 C0 10.05 0 5.1 0 0 Z " fill="#4B3805" transform="translate(135,120)"/>
<path d="M0 0 C4.95 0 9.9 0 15 0 C15 4.95 15 9.9 15 15 C10.05 15 5.1 15 0 15 C0 10.05 0 5.1 0 0 Z " fill="#84670B" transform="translate(120,120)"/>
<path d="M0 0 C4.95 0 9.9 0 15 0 C15 4.95 15 9.9 15 15 C10.05 15 5.1 15 0 15 C0 10.05 0 5.1 0 0 Z " fill="#F0D421" transform="translate(105,120)"/>
<path d="M0 0 C4.95 0 9.9 0 15 0 C15 4.95 15 9.9 15 15 C10.05 15 5.1 15 0 15 C0 10.05 0 5.1 0 0 Z " fill="#4B3805" transform="translate(15,120)"/>
<path d="M0 0 C4.95 0 9.9 0 15 0 C15 4.95 15 9.9 15 15 C10.05 15 5.1 15 0 15 C0 10.05 0 5.1 0 0 Z " fill="#84670B" transform="translate(105,105)"/>
<path d="M0 0 C4.95 0 9.9 0 15 0 C15 4.95 15 9.9 15 15 C10.05 15 5.1 15 0 15 C0 10.05 0 5.1 0 0 Z " fill="#84670B" transform="translate(45,105)"/>
<path d="M0 0 C4.95 0 9.9 0 15 0 C15 4.95 15 9.9 15 15 C10.05 15 5.1 15 0 15 C0 10.05 0 5.1 0 0 Z " fill="#4B3805" transform="translate(30,105)"/>
<path d="M0 0 C4.95 0 9.9 0 15 0 C15 4.95 15 9.9 15 15 C10.05 15 5.1 15 0 15 C0 10.05 0 5.1 0 0 Z " fill="#84670B" transform="translate(120,90)"/>
<path d="M0 0 C4.95 0 9.9 0 15 0 C15 4.95 15 9.9 15 15 C10.05 15 5.1 15 0 15 C0 10.05 0 5.1 0 0 Z " fill="#4B3805" transform="translate(15,90)"/>
<path d="M0 0 C4.95 0 9.9 0 15 0 C15 4.95 15 9.9 15 15 C10.05 15 5.1 15 0 15 C0 10.05 0 5.1 0 0 Z " fill="#4B3805" transform="translate(150,75)"/>
<path d="M0 0 C4.95 0 9.9 0 15 0 C15 4.95 15 9.9 15 15 C10.05 15 5.1 15 0 15 C0 10.05 0 5.1 0 0 Z " fill="#B99F16" transform="translate(15,75)"/>
<path d="M0 0 C4.95 0 9.9 0 15 0 C15 4.95 15 9.9 15 15 C10.05 15 5.1 15 0 15 C0 10.05 0 5.1 0 0 Z " fill="#4B3805" transform="translate(0,75)"/>
<path d="M0 0 C4.95 0 9.9 0 15 0 C15 4.95 15 9.9 15 15 C10.05 15 5.1 15 0 15 C0 10.05 0 5.1 0 0 Z " fill="#B99F16" transform="translate(45,60)"/>
<path d="M0 0 C4.95 0 9.9 0 15 0 C15 4.95 15 9.9 15 15 C10.05 15 5.1 15 0 15 C0 10.05 0 5.1 0 0 Z " fill="#84670B" transform="translate(105,45)"/>
<path d="M0 0 C4.95 0 9.9 0 15 0 C15 4.95 15 9.9 15 15 C10.05 15 5.1 15 0 15 C0 10.05 0 5.1 0 0 Z " fill="#B99F16" transform="translate(90,45)"/>
<path d="M0 0 C4.95 0 9.9 0 15 0 C15 4.95 15 9.9 15 15 C10.05 15 5.1 15 0 15 C0 10.05 0 5.1 0 0 Z " fill="#84670B" transform="translate(45,45)"/>
<path d="M0 0 C4.95 0 9.9 0 15 0 C15 4.95 15 9.9 15 15 C10.05 15 5.1 15 0 15 C0 10.05 0 5.1 0 0 Z " fill="#B99F16" transform="translate(75,30)"/>
<path d="M0 0 C4.95 0 9.9 0 15 0 C15 4.95 15 9.9 15 15 C10.05 15 5.1 15 0 15 C0 10.05 0 5.1 0 0 Z " fill="#4D3708" transform="translate(75,0)"/>
</svg>
